<?xml version="1.0" encoding="UTF-8"?>
<svg width="51px" height="34px" viewBox="0 0 51 34" version="1.1" xmlns="http://www.w3.org/2000/svg" xmlns:xlink="http://www.w3.org/1999/xlink">
    <!-- Generator: Sketch 64 (93537) - https://sketch.com -->
    <title>Group 46</title>
    <desc>Created with Sketch.</desc>
    <g id="Page-1" stroke="none" stroke-width="1" fill="none" fill-rule="evenodd">
        <g id="LAT-04.09.20-01-Alternate" transform="translate(-1298.000000, -1057.000000)">
            <g id="Group-38" transform="translate(0.000000, 920.000000)">
                <g id="Group-36" transform="translate(1094.000000, 137.000000)">
                    <g id="Group-46" transform="translate(204.000000, 0.000000)">
                        <g id="Group-21-Copy-2" fill="#26BBE3">
                            <path d="M2,0 L49,0 C50.1045695,-2.02906125e-16 51,0.8954305 51,2 L51,17.4229973 L51,17.4229973 L51,32 C51,33.1045695 50.1045695,34 49,34 L2,34 C0.8954305,34 1.3527075e-16,33.1045695 0,32 L0,2 C-1.3527075e-16,0.8954305 0.8954305,2.02906125e-16 2,0 Z" id="Rectangle-Copy-25"></path>
                        </g>
                        <path d="M23.7991401,20.6504812 C20.5644337,20.6504812 17.9425243,18.029349 17.9425243,14.7960791 C17.9425243,11.5629219 20.5644337,8.94178972 23.7991401,8.94178972 C27.033508,8.94178972 29.6554926,11.5629219 29.6554926,14.7960791 C29.6554926,18.029349 27.033508,20.6504812 23.7991401,20.6504812 Z M35.670866,25.0490206 L30.0619047,19.441888 C31.0266773,18.1443529 31.5979416,16.537007 31.5979416,14.7960791 C31.5979416,10.4905055 28.1062133,7 23.7991401,7 C19.491766,7 16,10.4905055 16,14.7960791 C16,19.1017654 19.491766,22.5922333 23.7991401,22.5922333 C25.5369347,22.5922333 27.1415159,22.023457 28.4380243,21.0627726 L34.0480014,26.6708454 C34.4900776,27.1127716 35.2168266,27.1091988 35.6631163,26.6631359 C36.1093683,26.2170353 36.1126036,25.4905706 35.670866,25.0490206 L35.670866,25.0490206 Z" id="Fill-1-Copy" fill="#FFFFFF"></path>
                    </g>
                </g>
            </g>
        </g>
    </g>
</svg>